<?xml version="1.0" standalone="no"?>
<!DOCTYPE svg PUBLIC "-//W3C//DTD SVG 20010904//EN"
 "http://www.w3.org/TR/2001/REC-SVG-20010904/DTD/svg10.dtd">
<svg version="1.0" xmlns="http://www.w3.org/2000/svg"
 width="699.000000pt" height="466.000000pt" viewBox="0 0 699.000000 466.000000"
 preserveAspectRatio="xMidYMid meet">

<g transform="translate(0.000000,466.000000) scale(0.100000,-0.100000)"
fill="#000000" stroke="none">
<path d="M0 3782 c0 -824 1 -880 18 -894 9 -9 26 -18 37 -20 11 -2 21 -13 23
-25 2 -12 10 -27 18 -33 8 -7 14 -21 14 -32 0 -23 -27 -35 -43 -19 -17 17 -27
13 -27 -11 0 -13 -9 -38 -20 -56 -20 -32 -20 -51 -20 -1362 l0 -1330 1160 0
1160 0 7 31 6 31 101 -6 c95 -6 157 -7 216 -4 34 2 361 -11 384 -15 10 -2 24
-11 31 -20 11 -15 35 -17 184 -17 140 0 175 3 187 15 9 8 30 15 49 15 18 0 40
3 49 6 12 4 16 0 16 -15 l0 -21 395 0 c365 0 395 1 404 17 10 17 10 17 11 1 0
-17 34 -18 573 -18 l572 0 -4 52 c-2 29 -8 56 -14 60 -6 3 -11 22 -11 42 -1
22 -6 36 -13 36 -7 0 -13 7 -13 15 0 8 -7 15 -15 15 -13 0 -15 9 -10 53 4 28
8 58 11 65 2 7 0 11 -5 7 -5 -3 -14 18 -20 45 -13 59 -14 93 -3 87 4 -3 6 21
5 53 -1 41 3 62 13 71 8 6 14 22 14 36 0 18 5 23 18 21 11 -2 26 3 34 10 12
10 26 10 64 1 74 -17 174 -57 223 -90 25 -16 51 -29 58 -29 18 0 43 -60 45
-105 1 -32 14 -45 43 -44 18 0 22 -71 9 -129 -8 -31 -14 -70 -14 -86 0 -16
-10 -43 -23 -60 -24 -34 -67 -110 -67 -120 0 -3 113 -6 250 -6 160 0 250 4
250 10 0 6 -4 10 -9 10 -5 0 -13 10 -16 23 -4 12 -15 31 -26 42 -10 11 -27 30
-37 41 -11 12 -26 24 -33 26 -10 3 -14 20 -12 56 0 29 -3 52 -8 52 -5 0 -9 7
-9 15 0 8 -5 15 -10 15 -6 0 -16 12 -22 26 -9 20 -9 27 2 34 7 4 14 19 15 32
1 20 8 23 43 26 29 2 42 8 42 18 0 8 -5 14 -11 14 -6 0 -8 7 -5 15 3 8 9 23
12 33 5 14 4 14 -4 3 -6 -8 -29 -16 -51 -17 -64 -3 -51 13 32 40 9 3 17 12 17
21 0 15 16 20 57 16 33 -3 63 16 63 39 0 14 7 20 23 21 12 1 29 3 37 4 8 1 23
3 33 4 9 0 17 8 17 17 0 8 4 13 9 9 5 -3 12 -1 16 4 7 12 45 -18 45 -36 0 -16
17 -17 22 -1 6 17 28 0 28 -22 0 -10 -8 -21 -17 -23 -16 -4 -16 -5 0 -6 11 0
32 8 48 20 32 23 35 20 41 -43 2 -21 0 -38 -4 -38 -4 0 -8 -10 -8 -22 0 -12
-6 -29 -14 -37 -16 -18 -8 -108 9 -103 20 6 27 -76 11 -126 -8 -26 -18 -72
-22 -102 -3 -30 -13 -65 -20 -77 -8 -12 -14 -25 -14 -28 0 -3 88 -5 195 -5
l195 0 0 244 0 245 -26 28 c-36 38 -64 101 -63 143 0 34 1 33 22 -21 12 -30
32 -69 44 -85 l22 -29 0 465 c0 393 -2 468 -14 484 -19 25 -19 60 0 76 12 10
21 39 13 40 -2 1 -21 3 -43 6 -56 8 -57 14 -2 14 l47 0 0 577 0 577 -28 30
c-15 17 -18 23 -6 13 45 -37 48 -4 3 39 -34 32 -69 94 -69 121 0 12 5 8 16
-12 22 -44 71 -101 80 -92 4 4 -2 17 -13 30 -11 12 -29 38 -38 56 -28 55 -18
166 16 187 9 5 10 2 5 -12 -4 -10 -4 -15 0 -11 4 4 13 2 21 -4 11 -10 13 117
13 770 l0 781 -3495 0 -3495 0 0 -878z m3309 398 c5 0 11 7 15 15 5 13 11 12
45 -5 44 -24 50 -37 44 -106 -3 -36 -1 -45 6 -34 6 8 11 38 12 65 1 28 3 42 6
33 2 -10 11 -18 19 -18 16 0 19 -16 4 -25 -8 -5 -7 -11 1 -21 25 -30 -44 -155
-105 -191 -12 -7 -31 -18 -43 -24 -24 -13 -31 -29 -12 -29 6 0 19 -10 28 -22
l18 -21 6 33 c4 18 9 31 12 28 3 -2 0 -19 -5 -37 -6 -24 -5 -42 4 -65 13 -30
13 -30 13 29 0 91 50 171 130 208 27 12 31 29 6 20 -10 -3 -15 -3 -11 1 3 4
12 8 20 10 7 1 20 6 28 11 8 5 51 9 95 8 82 -1 157 -24 198 -61 14 -13 20 -13
26 -4 5 8 8 -2 9 -24 2 -47 10 -70 37 -115 23 -35 23 -36 3 -48 -16 -10 -18
-19 -12 -56 4 -27 2 -45 -3 -45 -5 0 -31 -16 -57 -37 l-47 -36 -37 36 c-49 47
-82 59 -166 58 -54 0 -80 -6 -119 -25 -27 -15 -55 -26 -63 -26 -8 0 -14 -6
-14 -14 0 -7 -10 -26 -22 -41 -18 -23 -22 -40 -21 -89 1 -33 7 -73 14 -88 15
-38 -3 -58 -90 -101 -61 -30 -73 -32 -166 -32 -56 1 -113 6 -129 13 -30 13
-30 29 1 17 27 -10 112 -13 142 -5 25 7 25 7 -9 13 -19 3 -56 8 -82 11 -67 8
-132 41 -190 98 -27 26 -53 48 -57 48 -14 0 -43 109 -39 148 l3 37 -52 -34
c-61 -41 -64 -42 -165 -48 -105 -7 -162 14 -234 85 -72 71 -72 82 1 21 39 -32
58 -30 23 3 -39 36 -73 101 -82 159 -7 40 8 94 23 84 5 -3 16 4 24 16 l15 20
15 -22 c14 -19 18 -20 33 -8 9 8 20 13 23 11 3 -2 9 11 14 27 8 32 27 43 27
16 0 -17 16 -20 25 -5 5 8 11 7 21 -1 11 -9 16 -7 22 11 10 27 62 38 62 14 0
-8 5 -12 10 -9 6 4 8 11 5 16 -4 5 0 16 8 24 13 13 17 13 27 0 7 -8 18 -15 25
-15 8 0 16 -6 19 -12 3 -7 3 -3 0 10 -7 28 0 28 39 0 39 -27 66 -59 67 -75 0
-7 8 -13 18 -13 13 0 14 -2 3 -9 -9 -6 -10 -11 -2 -15 6 -4 15 -5 20 -2 22 14
46 -63 30 -96 -6 -10 -5 -19 2 -24 12 -7 59 15 59 28 0 5 -6 6 -12 2 -7 -4 -6
0 2 8 14 14 105 68 115 68 2 0 2 -6 0 -12 -4 -10 9 -12 47 -10 29 1 78 -4 108
-11 49 -11 60 -11 108 7 28 10 52 23 52 27 0 12 -14 11 -27 -2 -6 -6 -43 -14
-81 -17 -142 -10 -250 53 -292 168 -11 30 -20 65 -20 77 0 30 20 40 21 11 0
-22 1 -22 9 -3 8 19 9 19 9 -2 1 -27 20 -31 22 -5 1 16 2 16 6 -1 3 -12 11
-15 29 -11 18 5 24 2 24 -10 0 -9 5 -16 10 -16 6 0 10 11 10 25 0 25 14 33 25
15 12 -20 27 -10 23 15 -6 31 7 42 22 18 8 -13 13 -14 16 -5 3 6 10 12 15 12
6 0 6 -7 0 -19 -9 -16 -8 -18 8 -14 10 3 22 0 25 -6 12 -19 26 -12 26 12 0 31
14 49 32 42 9 -4 19 -1 23 5 6 9 10 9 17 -1 7 -12 11 -11 21 3 11 17 12 16 19
-2 4 -11 12 -20 17 -20z m496 -6 c46 -22 51 -35 28 -74 -15 -26 -22 -30 -43
-25 -14 4 -71 9 -128 12 l-103 5 3 26 c3 30 63 76 89 69 9 -3 22 -1 29 3 18
11 85 3 125 -16z m421 5 c24 -6 44 -15 44 -20 0 -5 -42 -9 -92 -10 -104 -1
-176 -16 -191 -40 -8 -12 -5 -39 8 -95 11 -44 19 -106 20 -139 l0 -60 -30 0
c-26 0 -33 7 -57 54 -67 132 -3 264 152 315 28 9 101 6 146 -5z m344 -225 c0
-7 -4 -16 -10 -19 -5 -3 -10 0 -10 7 0 7 -3 24 -6 38 -5 24 -5 24 10 6 9 -11
16 -25 16 -32z m117 -86 c7 -5 18 -6 24 -2 8 5 9 3 4 -6 -6 -10 -4 -12 8 -7
11 4 14 2 10 -9 -3 -10 0 -12 10 -9 9 4 23 -4 36 -21 29 -37 26 -51 -4 -17
-15 17 -23 21 -19 11 3 -10 11 -18 16 -18 16 0 6 -13 -44 -59 -63 -57 -87 -52
-80 18 4 44 2 49 -19 54 -13 4 -41 7 -63 7 l-39 0 6 37 c9 55 28 65 90 46 29
-8 57 -19 64 -25z m-2662 -96 c-22 -57 -19 -54 -39 -46 -9 3 -16 16 -16 28 0
16 2 18 9 7 7 -11 10 -7 13 15 2 21 8 28 21 26 12 -2 17 4 18 20 0 13 3 17 6
10 3 -8 -3 -35 -12 -60z m4017 -12 c47 -25 78 -51 78 -66 0 -6 -9 -21 -20 -34
-11 -13 -20 -27 -20 -31 0 -5 -39 -6 -87 -3 -62 4 -104 1 -143 -9 -30 -9 -58
-13 -62 -11 -11 7 2 65 24 101 40 66 156 93 230 53z m-4243 -47 c1 -33 -16
-28 -24 7 -8 36 5 63 16 34 4 -10 8 -29 8 -41z m354 3 c17 -40 50 -76 161
-171 16 -14 33 -25 37 -25 5 0 9 -4 9 -10 0 -13 -75 -13 -124 1 -21 6 -57 28
-80 49 -41 38 -42 40 -44 110 -4 103 11 119 41 46z m4236 -36 c7 -11 20 -20
27 -20 8 0 14 -7 14 -15 0 -9 9 -15 25 -15 15 0 26 -6 26 -15 3 -39 17 -58 35
-51 26 10 46 -5 40 -30 -5 -18 -3 -22 8 -18 9 3 30 -9 52 -31 l36 -36 -17 -45
c-9 -24 -21 -46 -26 -49 -18 -12 -8 -23 24 -29 67 -13 187 -120 187 -168 0
-23 29 -36 40 -18 5 9 11 -5 15 -36 3 -27 8 -61 10 -75 2 -14 0 -30 -4 -35
-19 -20 -20 -61 -3 -89 l18 -29 -50 -44 c-59 -53 -109 -76 -194 -92 -75 -13
-87 -7 -96 51 -14 85 -148 303 -230 373 -32 27 -44 45 -41 57 3 10 -1 19 -11
23 -22 9 -32 -2 -14 -15 11 -8 5 -9 -20 -4 -19 3 -67 9 -107 13 -39 4 -74 10
-78 14 -6 6 25 57 50 83 43 44 98 85 113 85 13 -1 10 -6 -13 -25 -16 -14 -26
-25 -21 -25 5 0 18 7 28 17 10 9 28 21 40 27 31 16 34 36 6 36 -45 0 -98 -21
-150 -60 l-53 -40 -11 37 c-7 21 -12 34 -13 30 -1 -5 -6 -5 -12 -1 -8 4 -7 9
2 15 12 7 11 9 -1 10 -8 1 -18 1 -22 0 -5 0 -8 3 -8 9 0 5 -6 7 -14 4 -7 -3
-20 2 -29 10 -9 9 -22 16 -30 16 -23 0 -77 -56 -77 -80 0 -17 -4 -20 -17 -14
-10 4 -47 18 -83 30 -36 13 -64 24 -63 26 0 2 7 15 14 31 7 15 15 27 18 27 4
0 18 11 32 24 35 32 135 66 195 66 54 0 135 -22 171 -45 13 -9 23 -25 23 -39
0 -13 6 -28 13 -34 11 -9 13 -3 11 31 -4 75 28 128 106 179 52 33 106 33 129
-2z m-3674 -81 c-4 -5 -16 -8 -28 -8 -17 1 -18 2 -4 6 9 2 17 9 17 14 0 6 5 7
10 4 6 -4 8 -11 5 -16z m-60 -29 c-11 -5 -31 -8 -45 -8 l-25 0 25 8 c14 4 34
8 45 8 l20 1 -20 -9z m2505 -15 c0 -8 -4 -15 -10 -15 -5 0 -7 7 -4 15 4 8 8
15 10 15 2 0 4 -7 4 -15z m17 -7 c-3 -8 -6 -5 -6 6 -1 11 2 17 5 13 3 -3 4
-12 1 -19z m-2614 5 c-13 -2 -33 -2 -45 0 -13 2 -3 4 22 4 25 0 35 -2 23 -4z
m2662 -3 c3 -5 1 -10 -4 -10 -6 0 -11 5 -11 10 0 6 2 10 4 10 3 0 8 -4 11 -10z
m25 -35 c0 -14 -5 -24 -11 -22 -6 1 -14 -4 -16 -10 -3 -8 3 -13 14 -13 14 0
15 -2 4 -9 -10 -7 -10 -10 -1 -13 7 -2 14 -16 16 -31 2 -19 -6 -34 -31 -55
-18 -16 -40 -41 -49 -55 -10 -15 -40 -33 -74 -46 -60 -21 -82 -40 -125 -104
l-25 -37 -11 33 c-13 39 -30 165 -23 172 3 3 14 5 25 5 33 0 110 43 142 79 16
19 29 37 29 40 -1 3 5 15 12 26 8 11 14 27 14 37 0 11 7 18 19 18 14 0 21 -10
25 -35 8 -39 26 -38 26 0 0 18 4 23 15 19 9 -4 15 0 15 10 0 9 2 16 5 16 3 0
5 -11 5 -25z m-2557 -26 c-1 -19 -2 -36 -2 -38 -1 -3 -12 6 -26 19 -28 26 -34
53 -10 44 8 -4 15 -1 15 6 0 6 6 10 13 7 7 -2 11 -18 10 -38z m2967 37 c0 -2
-19 -41 -42 -85 -36 -69 -42 -90 -43 -144 0 -34 4 -74 8 -88 7 -21 3 -32 -16
-55 l-25 -29 -33 30 c-17 17 -40 49 -51 72 -16 36 -17 51 -9 102 12 76 31 111
77 146 39 30 134 66 134 51z m-348 -46 c1 -14 8 -28 13 -32 6 -4 1 -8 -10 -8
-15 0 -17 -2 -6 -9 11 -7 10 -11 -7 -20 -30 -16 -32 -15 -32 24 0 24 5 35 15
35 9 0 15 9 15 22 0 27 7 20 12 -12z m-2742 -15 c7 -8 9 -15 5 -15 -4 0 -2 -7
5 -15 16 -20 5 -32 -35 -38 l-30 -4 33 -2 c17 0 32 -6 32 -11 0 -6 -18 -9 -40
-8 -22 2 -40 8 -40 14 0 6 -14 14 -31 18 -31 6 -62 29 -53 39 3 3 13 3 21 0 8
-3 18 -2 22 3 7 11 59 31 82 33 9 1 22 -6 29 -14z m2833 -5 c3 -12 0 -20 -8
-20 -8 0 -11 8 -8 20 3 11 7 20 8 20 1 0 5 -9 8 -20z m-4839 -40 c-11 -29 -34
-145 -34 -177 0 -18 -3 -33 -6 -33 -4 0 -33 10 -65 21 -66 24 -70 34 -43 104
11 31 28 49 66 72 54 34 93 40 82 13z m5691 10 c-3 -5 -11 -10 -16 -10 -6 0
-7 5 -4 10 3 6 11 10 16 10 6 0 7 -4 4 -10z m-870 -67 c-30 -97 -12 -180 53
-251 l30 -33 -18 -57 -17 -57 -44 3 c-96 6 -198 98 -213 192 -19 118 83 245
201 249 22 1 22 0 8 -46z m357 -40 c38 -37 68 -73 68 -79 0 -8 -21 -13 -57
-14 -94 -3 -101 -5 -96 -14 3 -5 0 -7 -8 -4 -29 10 -15 178 15 178 6 0 41 -30
78 -67z m-2827 27 c3 -6 -1 -7 -9 -4 -18 7 -21 14 -7 14 6 0 13 -4 16 -10z
m1385 -80 c23 -23 27 -77 7 -104 -17 -23 -85 -31 -130 -17 -66 22 -89 102 -37
128 14 7 51 13 83 13 44 0 62 -5 77 -20z m-385 -16 c16 -25 16 -25 -5 -14 -18
10 -26 8 -46 -11 -13 -12 -24 -28 -24 -35 0 -20 -44 -26 -57 -7 -34 45 7 90
83 92 24 1 36 -6 49 -25z m-271 -146 c-8 -15 -22 -29 -31 -32 -10 -4 -39 -26
-65 -50 -77 -73 -85 -149 -24 -239 13 -19 23 -37 21 -39 -2 -2 4 -5 13 -6 9
-1 51 -6 92 -11 41 -5 83 -10 93 -10 14 -1 16 -6 11 -28 -11 -47 -21 -52 -90
-51 -86 1 -92 -9 -10 -17 73 -8 79 -17 40 -55 -25 -23 -27 -23 -39 -6 -10 14
-27 17 -77 17 -34 -1 -91 2 -125 5 -52 5 -72 2 -127 -20 -35 -14 -75 -26 -87
-26 -12 0 -37 -5 -55 -12 -39 -14 -64 1 -64 38 0 24 86 164 101 164 4 0 10
-10 12 -22 3 -14 5 -8 6 15 1 37 43 116 97 180 20 24 24 25 32 11 7 -13 10 -7
14 23 5 37 64 141 81 142 4 1 7 -10 7 -24 0 -14 5 -25 11 -25 6 0 9 9 6 19 -2
10 0 25 5 32 8 11 9 10 4 -3 -3 -10 -1 -20 3 -22 7 -5 21 35 35 99 2 14 4 11
5 -8 1 -37 17 -26 25 17 5 25 11 34 21 29 10 -3 15 1 15 12 0 10 10 26 23 37
l22 20 6 -64 c5 -44 3 -71 -7 -90z m-1504 80 c0 -13 -23 -5 -28 10 -2 7 2 10
12 6 9 -3 16 -11 16 -16z m4036 -20 c3 -5 9 -6 14 -3 5 3 26 -4 47 -15 21 -11
45 -20 55 -20 18 0 31 -15 35 -39 1 -8 23 -33 48 -57 26 -23 44 -47 40 -53 -3
-6 -1 -11 4 -11 6 0 11 -7 11 -15 0 -8 4 -15 9 -15 13 0 48 -89 56 -143 5 -40
3 -51 -11 -62 -16 -11 -17 -16 -6 -37 7 -13 13 -32 13 -43 1 -44 -18 -132 -33
-155 -9 -14 -20 -43 -24 -65 -9 -52 -48 -105 -77 -104 -12 0 -39 -4 -60 -9
-67 -18 -73 -11 -75 81 -2 59 -7 86 -19 100 -9 10 -18 28 -20 40 -2 12 -22 38
-45 59 -23 21 -39 40 -35 44 3 4 37 6 74 6 46 -1 81 5 108 18 36 17 41 17 46
3 3 -9 6 12 7 47 3 109 -46 185 -141 216 -55 18 -115 14 -152 -10 -39 -26 -68
-92 -62 -143 4 -38 2 -43 -12 -37 -9 3 -23 8 -32 11 -11 3 -18 20 -22 49 -5
50 -43 106 -86 128 -32 17 -101 12 -145 -10 -36 -18 -33 -19 -39 11 -6 36 12
42 116 40 93 -2 101 2 112 47 6 24 3 29 -20 38 -14 5 -56 10 -91 10 -41 0 -63
4 -59 10 3 6 -1 10 -9 10 -33 0 -15 35 29 58 51 25 110 28 160 8 18 -8 36 -12
38 -9 3 2 15 0 26 -7 16 -8 27 -8 44 2 52 28 171 45 183 26z m665 -15 c-8 -15
-10 -15 -11 -2 0 17 10 32 18 25 2 -3 -1 -13 -7 -23z m-6305 -35 c17 -18 34
-40 37 -48 3 -10 7 -6 12 13 6 21 13 27 35 27 22 0 33 -10 64 -59 24 -40 46
-62 66 -70 28 -9 40 -34 22 -45 -20 -12 -164 -16 -178 -5 -11 9 -14 8 -14 -2
0 -12 -2 -12 -9 -1 -7 11 -9 11 -14 -1 -3 -8 -26 -18 -53 -22 -27 -4 -75 -15
-108 -25 -64 -20 -76 -19 -76 9 0 12 14 23 39 33 29 12 45 27 60 56 30 59 53
132 47 148 -3 8 -3 21 0 29 8 19 28 8 70 -37z m1217 46 c3 -4 -1 -16 -8 -28
-13 -19 -13 -25 -1 -41 12 -16 16 -17 30 -6 18 15 21 8 6 -20 -8 -14 -21 -19
-51 -19 -44 0 -72 11 -106 43 -23 20 -33 54 -13 42 6 -3 10 -2 10 3 0 22 114
45 133 26z m247 -34 c0 -14 -31 -40 -41 -35 -10 7 -12 38 -3 47 7 8 44 -3 44
-12z m352 13 c-18 -7 14 -43 38 -43 10 0 23 -7 30 -15 7 -8 16 -15 21 -15 4 0
25 -10 45 -22 21 -12 46 -23 56 -23 10 -1 24 -7 30 -13 16 -16 -45 -17 -73 -2
-13 8 -19 7 -19 0 0 -7 -12 -9 -32 -5 -18 3 -50 7 -70 8 -20 2 -40 5 -43 9 -4
4 -18 2 -32 -5 -19 -9 -26 -8 -33 3 -7 12 -12 12 -22 2 -19 -19 -42 -14 -72
17 -22 23 -27 37 -24 60 2 17 0 33 -6 35 -6 3 33 5 87 4 54 0 101 2 104 6 4 3
11 6 17 5 6 0 5 -3 -2 -6z m738 -75 c0 -71 5 -82 38 -93 21 -6 99 -15 145 -16
9 0 17 -8 17 -18 0 -23 -59 -113 -70 -106 -5 3 -6 30 -4 60 4 35 1 55 -5 55
-7 0 -11 -22 -11 -53 0 -53 -20 -87 -53 -87 -8 0 -8 -3 2 -9 8 -5 20 -7 27 -4
10 4 11 -2 5 -25 -19 -64 -54 -112 -83 -112 -20 0 -24 -15 -8 -25 7 -4 -1 -20
-19 -40 -16 -19 -35 -49 -42 -68 l-12 -35 -81 -4 c-45 -3 -87 0 -93 5 -7 5
-13 25 -13 45 0 43 -5 39 -14 -9 -5 -28 -2 -42 15 -63 11 -14 25 -24 30 -20 8
4 225 8 322 5 44 -2 31 -24 -35 -61 -35 -19 -66 -36 -70 -38 -5 -2 -8 9 -9 25
-1 26 -2 25 -11 -9 -6 -24 -17 -38 -31 -42 -12 -3 -102 -5 -199 -5 -97 1 -182
-2 -187 -6 -6 -3 -20 -1 -32 5 -18 10 -20 9 -17 -7 4 -19 19 -22 151 -25 37
-1 67 -5 67 -9 0 -4 7 -10 16 -13 14 -5 15 -4 4 9 -11 13 -5 15 49 15 34 0 61
-4 61 -10 0 -17 -92 -57 -97 -42 -7 20 -21 14 -25 -10 -3 -20 -8 -23 -46 -20
-43 4 -84 -14 -108 -46 -24 -32 -84 -20 -201 40 -105 54 -139 66 -202 67 -18
1 -22 4 -14 12 7 7 67 13 155 15 78 2 147 3 152 4 5 0 6 3 2 7 -7 8 -85 13
-236 16 -87 2 -95 4 -98 22 -2 13 15 37 47 69 l50 49 193 -2 c106 -2 215 -4
243 -4 40 -2 50 1 53 16 3 15 -5 17 -57 17 -33 0 -63 5 -66 10 -4 6 -13 7 -23
1 -9 -4 -81 -9 -160 -10 -121 -1 -143 1 -148 14 -5 12 -13 7 -35 -24 -26 -34
-69 -71 -84 -71 -3 0 -5 10 -5 23 -1 36 -25 58 -72 64 -24 3 -49 10 -55 16 -8
5 -13 6 -13 0 0 -5 6 -15 13 -22 22 -22 -27 -48 -92 -47 l-56 1 -5 35 c-4 19
-4 41 -2 48 5 15 62 16 62 0 0 -6 12 0 28 15 25 24 28 25 40 9 7 -9 5 -1 -4
18 -16 32 -16 35 1 45 10 5 32 22 49 36 29 25 37 26 125 25 87 -1 94 -3 97
-22 5 -33 23 -72 23 -51 1 14 11 17 69 18 86 1 172 13 152 22 -8 4 -62 8 -119
10 -121 4 -128 9 -109 84 16 63 24 73 62 73 27 1 28 2 13 11 -10 6 -29 8 -43
5 -19 -5 -25 -2 -30 18 -8 32 -48 68 -113 102 -44 23 -51 29 -35 35 10 3 39 5
64 3 25 -2 106 -5 179 -7 134 -2 135 -2 140 21 8 30 27 28 24 -3 -1 -22 3 -24
45 -27 40 -3 47 -7 53 -28 l7 -25 1 28 1 27 108 2 c201 3 232 6 232 19 0 8
-15 9 -45 5 -25 -4 -50 -4 -55 -1 -18 11 -113 14 -181 5 -65 -8 -89 -1 -89 26
0 7 8 13 18 14 26 1 55 0 72 -2 40 -4 71 3 64 14 -5 8 -2 9 9 5 10 -3 17 -2
17 3 0 6 -7 10 -16 10 -14 0 -15 2 -3 17 24 28 69 40 150 42 l79 2 0 -63z
m228 50 c90 1 103 -3 81 -25 -6 -6 -16 -22 -23 -34 -6 -13 -26 -32 -44 -42
-31 -19 -34 -19 -52 -2 -18 16 -20 17 -20 2 0 -19 -25 -23 -35 -7 -4 6 -12 7
-18 3 -7 -4 -31 -9 -54 -10 l-43 -3 0 58 c0 32 3 62 7 65 3 4 29 4 57 0 28 -4
93 -7 144 -5z m2182 -47 c0 -5 -7 -14 -15 -21 -12 -10 -15 -10 -15 2 0 8 3 18
7 21 9 10 23 9 23 -2z m-2835 -41 c0 -7 -6 -15 -12 -17 -8 -3 -13 4 -13 17 0
13 5 20 13 18 6 -3 12 -11 12 -18z m-1629 -27 c-3 -10 -8 -40 -12 -68 -8 -62
-11 -67 -32 -56 -19 10 -28 66 -12 76 5 3 10 16 10 29 0 28 7 36 32 36 14 0
18 -5 14 -17z m2774 -3 c0 -5 -7 -10 -16 -10 -8 0 -13 -4 -10 -8 2 -4 1 -14
-5 -22 -6 -11 -9 -8 -9 12 0 17 6 28 18 31 9 3 18 5 20 6 1 0 2 -3 2 -9z m529
-40 c25 -35 21 -69 -8 -67 -13 1 -17 6 -13 17 5 13 4 13 -12 1 -16 -13 -17
-12 -11 15 5 24 4 26 -5 12 -14 -23 -30 -23 -30 -1 0 19 28 53 45 53 6 0 21
-14 34 -30z m-2163 -28 c11 -7 15 -102 4 -102 -3 0 -10 17 -17 38 -6 20 -15
45 -18 55 -7 18 10 23 31 9z m-178 -21 c2 -6 14 -11 27 -11 13 0 31 -10 39
-21 13 -19 13 -26 1 -48 -17 -34 -83 -71 -125 -71 -77 0 -129 84 -89 142 18
25 24 26 81 23 34 -1 64 -8 66 -14z m3618 -43 c-13 -18 -30 -52 -38 -75 -15
-49 -25 -54 -34 -18 -3 14 -14 30 -23 35 -9 5 -11 10 -4 10 7 0 19 14 28 30 9
17 22 30 30 30 8 0 15 7 15 15 0 18 20 20 21 3 0 -7 6 -2 12 12 9 19 13 21 15
7 2 -9 -8 -31 -22 -49z m615 -58 l24 -20 -30 -25 c-34 -28 -110 -44 -128 -26
-6 6 -12 29 -12 51 l-1 40 62 0 c47 0 67 -5 85 -20z m-1260 -10 c24 -11 54
-20 65 -20 13 0 33 -15 49 -36 25 -32 26 -40 20 -96 l-7 -60 -47 6 c-25 3 -73
0 -106 -7 l-60 -12 -8 -56 -9 -57 -28 16 c-16 9 -35 28 -43 42 -18 30 -40 162
-35 205 3 28 7 30 49 35 29 4 59 16 80 32 19 15 35 27 35 28 1 0 21 -9 45 -20z
m834 -2 c36 -16 28 -38 -26 -65 -62 -32 -77 -25 -75 39 l1 50 37 -6 c21 -3 49
-11 63 -18z m95 -30 c0 -10 -5 -18 -11 -18 -5 0 -8 -4 -5 -8 3 -5 -6 -21 -19
-38 -22 -27 -24 -27 -25 -8 0 12 7 27 15 34 8 7 17 28 21 47 5 25 9 31 15 21
5 -7 9 -21 9 -30z m-373 0 c-3 -7 -5 -2 -5 12 0 14 2 19 5 13 2 -7 2 -19 0
-25z m1328 22 c3 -5 1 -10 -4 -10 -6 0 -11 5 -11 10 0 6 2 10 4 10 3 0 8 -4
11 -10z m-14 -27 c13 -16 12 -17 -3 -4 -10 7 -18 15 -18 17 0 8 8 3 21 -13z
m-324 -15 c-3 -8 -6 -5 -6 6 -1 11 2 17 5 13 3 -3 4 -12 1 -19z m265 -22 c26
-27 58 -66 58 -72 0 -16 -99 -47 -151 -46 -59 1 -143 32 -107 40 10 2 15 9 11
18 -3 9 2 14 15 14 12 0 24 5 28 11 9 15 84 47 111 48 12 1 28 -5 35 -13z
m-702 -66 c8 -5 11 -10 5 -10 -5 0 -17 5 -25 10 -8 5 -10 10 -5 10 6 0 17 -5
25 -10z m-437 -30 c-6 -22 -15 -19 -19 5 -1 8 4 15 11 15 8 0 11 -7 8 -20z
m-3593 -26 c0 -7 -8 -22 -19 -35 l-18 -22 1 45 c1 40 3 44 19 34 9 -6 17 -16
17 -22z m2370 -9 c-12 -14 -25 -22 -88 -56 -12 -7 -25 -9 -28 -6 -10 9 16 38
43 48 13 5 23 15 23 23 0 24 32 37 49 21 12 -12 12 -17 1 -30z m1338 26 c3 -8
0 -11 -6 -7 -6 3 -14 -3 -17 -15 -4 -13 -12 -18 -22 -15 -8 4 -23 -4 -34 -16
-15 -18 -20 -20 -27 -10 -7 11 -14 8 -31 -14 -11 -14 -21 -22 -21 -15 0 6 -3
10 -7 9 -8 -3 -13 5 -13 22 0 6 11 8 26 4 19 -5 25 -4 20 5 -4 6 -1 11 9 11 9
0 13 5 9 11 -4 7 0 9 12 5 26 -8 48 8 41 29 -6 13 -1 16 25 13 17 -2 34 -9 36
-17z m298 -54 c-6 -5 -2 -7 12 -4 12 3 20 1 17 -3 -3 -5 1 -11 7 -13 10 -4 9
-8 -2 -16 -9 -6 -16 -7 -18 -1 -5 13 -32 13 -32 -1 0 -15 -82 -7 -88 9 -2 7 6
12 20 12 13 0 30 5 38 11 13 9 12 10 -2 5 -13 -4 -18 0 -18 13 0 28 9 31 45
13 22 -11 29 -20 21 -25z m-4443 6 c22 -14 1 -24 -45 -21 -42 2 -54 7 -56 22
-4 17 0 18 45 11 26 -4 51 -9 56 -12z m85 -27 c4 -20 -27 -21 -54 -1 -16 12
-17 16 -5 24 19 12 55 -2 59 -23z m3643 17 c4 -28 4 -93 1 -93 -21 0 -113 34
-122 45 -12 14 -10 16 6 14 4 0 10 5 14 11 11 18 99 37 101 23z m-1107 -39 c3
-9 4 -20 0 -25 -7 -12 -84 -11 -84 1 0 6 8 10 19 10 10 0 24 7 31 15 16 19 26
19 34 -1z m-2436 -6 c19 -19 14 -38 -12 -38 -26 0 -51 24 -41 40 8 14 38 13
53 -2z m1725 1 c28 -12 45 -45 39 -71 -5 -27 -34 -21 -146 27 -37 16 -38 17
-20 36 20 22 87 26 127 8z m321 -15 c9 -24 0 -29 -31 -15 -22 10 -24 14 -12
22 21 13 36 11 43 -7z m-1930 0 c9 -3 16 -17 16 -30 0 -27 -26 -32 -61 -14
-15 9 -17 15 -9 30 11 21 27 24 54 14z m2049 -9 c1 -5 -17 -11 -40 -13 -27 -2
-43 1 -43 8 0 6 4 8 10 5 5 -3 18 -1 27 4 21 12 43 10 46 -4z m145 -3 c2 -8
-9 -12 -35 -12 -38 0 -38 0 -13 14 28 16 42 15 48 -2z m1286 -17 c3 -8 1 -15
-4 -15 -6 0 -10 7 -10 15 0 8 2 15 4 15 2 0 6 -7 10 -15z m-329 -35 c-3 -5
-12 -10 -18 -10 -7 0 -6 4 3 10 19 12 23 12 15 0z m1120 -9 c3 -6 7 -32 9 -60
3 -39 -1 -54 -15 -67 -15 -14 -21 -14 -34 -4 -17 15 -20 37 -4 42 6 2 12 24
14 48 1 25 3 46 4 48 3 6 20 1 26 -7z m-2758 -16 c27 -11 34 -18 26 -26 -14
-14 -73 9 -73 28 0 16 3 16 47 -2z m2341 -75 c10 -22 21 -38 24 -34 10 9 48
-15 48 -31 0 -37 -100 17 -112 60 -15 58 14 61 40 5z m360 -63 c2 -15 -2 -27
-8 -27 -6 0 -8 6 -4 13 4 7 3 9 -2 4 -5 -5 -9 -14 -9 -20 0 -7 -10 -11 -23
-11 -12 1 -22 -4 -22 -12 0 -15 -7 -16 -87 -19 -52 -1 -70 10 -35 22 9 4 20
11 24 17 5 7 8 7 8 -1 0 -7 8 -13 18 -13 13 0 18 7 18 23 -1 27 34 36 54 12
18 -22 32 -18 18 5 -11 17 -10 22 2 30 25 16 45 7 48 -23z m350 -14 c18 -11
22 -20 18 -36 -20 -66 -18 -83 6 -94 21 -9 51 -75 82 -178 2 -5 6 -17 9 -25 3
-8 7 -30 10 -48 3 -28 0 -35 -24 -48 -84 -43 -119 -125 -93 -214 8 -26 14 -64
13 -86 0 -21 3 -57 6 -80 6 -36 3 -45 -23 -75 -16 -19 -27 -39 -25 -46 2 -6
-5 -14 -16 -18 -12 -3 -24 -17 -27 -31 -3 -13 -14 -29 -23 -34 -14 -8 -14 -10
4 -11 13 0 10 -4 -11 -10 -20 -6 -46 -27 -70 -59 -26 -34 -40 -46 -46 -37 -5
7 -8 2 -8 -15 0 -25 -3 -27 -57 -33 -32 -3 -78 -10 -103 -15 -25 -5 -54 -9
-65 -9 -60 -2 -138 0 -195 6 -36 3 -76 7 -89 7 -13 1 -26 7 -29 14 -2 6 -17
12 -32 12 -16 0 -32 5 -35 10 -4 6 -10 8 -15 5 -4 -3 -10 2 -14 10 -3 9 -12
12 -22 8 -12 -4 -15 -3 -10 5 5 8 2 10 -8 6 -9 -4 -18 1 -22 10 -3 9 -10 13
-15 10 -15 -9 -49 6 -49 23 0 10 -6 14 -20 10 -19 -5 -24 0 -78 68 -5 6 -11
20 -14 31 -4 17 -1 22 18 22 13 0 24 -4 24 -9 0 -4 36 -16 80 -25 44 -10 80
-21 80 -26 0 -5 3 -7 8 -4 4 2 27 0 52 -5 124 -25 251 -36 347 -30 138 9 140
19 4 13 -112 -5 -266 12 -289 30 -7 6 -15 8 -18 5 -10 -9 -129 37 -190 74 -32
20 -68 52 -85 77 l-29 44 24 19 c14 11 35 36 47 56 13 20 24 32 25 27 1 -5 5
-21 8 -36 6 -26 10 -28 59 -28 28 0 72 5 97 12 25 6 59 10 76 9 18 -1 42 7 58
20 23 18 31 19 55 9 35 -14 78 -4 92 22 6 11 8 37 4 60 -6 32 -4 39 6 36 8 -3
15 -21 17 -41 4 -47 37 -72 82 -62 45 10 60 30 60 81 0 72 42 53 44 -21 1 -23
7 -32 29 -39 19 -7 33 -7 46 1 9 6 29 9 44 6 15 -3 33 0 41 6 7 6 26 9 42 5
53 -10 67 12 71 110 4 63 1 91 -9 103 -8 10 -12 37 -10 78 3 54 1 66 -18 83
-27 25 -82 34 -138 21 -40 -9 -46 -8 -59 11 -24 34 -93 19 -93 -21 0 -16 -5
-19 -36 -16 -19 3 -65 -2 -102 -10 -37 -8 -78 -14 -92 -15 -14 0 -58 -4 -98
-10 -84 -13 -102 -29 -102 -91 0 -31 -3 -38 -17 -35 -12 2 -18 15 -21 43 -2
22 -10 44 -18 48 -10 6 -13 33 -11 117 1 61 5 110 8 110 4 0 17 -8 30 -18 35
-26 123 -62 154 -62 65 0 218 54 227 80 4 12 137 49 183 51 17 1 22 3 13 6
-31 8 -21 33 12 33 27 0 29 -2 21 -19 -9 -17 -8 -18 12 -13 34 9 120 62 135
84 16 22 48 19 90 -9z m-567 -2 c21 -17 22 -20 7 -35 -17 -17 -33 -22 -24 -7
3 4 -6 13 -19 19 -25 12 -31 23 -18 35 11 12 30 8 54 -12z m259 15 c0 -2 -7
-6 -15 -10 -8 -3 -15 -1 -15 4 0 6 7 10 15 10 8 0 15 -2 15 -4z m586 -110 c95
-34 97 -35 84 -51 -12 -15 -146 -95 -165 -98 -5 -1 -11 14 -12 33 -1 19 -3 42
-4 50 -1 8 2 23 6 33 5 12 2 17 -9 17 -9 0 -16 4 -16 10 0 5 6 7 14 4 8 -3 17
-1 21 5 9 15 35 14 81 -3z m189 -16 c-17 -33 -20 -93 -5 -121 7 -12 7 -19 1
-19 -32 0 -37 104 -8 151 19 31 29 22 12 -11z m-5125 -27 c36 -8 81 -22 100
-31 19 -9 43 -17 53 -18 10 -1 23 -6 30 -13 6 -6 19 -11 28 -11 28 0 33 -20
10 -36 -27 -20 -21 -29 41 -60 28 -14 47 -29 41 -32 -11 -8 -11 -62 1 -81 7
-11 5 -13 -7 -8 -10 4 -17 0 -20 -11 -3 -14 -6 -12 -16 8 l-11 25 5 -26 c3
-19 0 -29 -12 -33 -9 -4 -19 -3 -22 0 -3 4 -1 9 6 11 15 6 5 33 -13 33 -7 0
-18 -8 -24 -17 -9 -15 -10 -13 -5 12 4 22 3 26 -5 15 -6 -10 -10 -11 -10 -2 0
6 -5 12 -12 12 -9 0 -9 -3 0 -12 17 -17 15 -38 -5 -60 -16 -18 -16 -18 0 -12
9 3 17 2 17 -4 0 -11 -82 -42 -111 -42 -10 0 -30 12 -44 26 -64 64 -229 109
-313 84 -64 -18 -132 -24 -144 -12 -10 10 -4 17 37 47 20 15 20 15 1 30 -16
12 -17 17 -6 30 7 8 16 13 20 10 4 -2 13 7 21 21 10 20 11 29 1 45 -11 16 -9
19 8 19 26 0 47 38 25 46 -17 7 -18 13 -6 33 12 18 159 41 226 35 28 -3 79
-12 115 -21z m815 -13 c-3 -5 -13 -10 -21 -10 -8 0 -14 5 -14 10 0 6 9 10 21
10 11 0 17 -4 14 -10z m4203 -55 c12 16 35 18 29 2 -3 -8 -8 -35 -12 -60 -6
-37 -10 -44 -26 -40 -16 4 -18 14 -16 58 1 29 5 48 10 42 4 -8 10 -9 15 -2z
m-3148 -80 c-14 -17 -40 -20 -40 -6 0 6 10 17 22 26 26 17 37 3 18 -20z m2476
24 c8 -14 -31 -53 -45 -45 -12 8 -15 39 -4 49 10 11 41 8 49 -4z m-1586 -19
c0 -5 -7 -10 -16 -10 -8 0 -12 5 -9 10 3 6 10 10 16 10 5 0 9 -4 9 -10z m1780
-10 c25 -25 25 -36 3 -49 -10 -6 -13 -11 -7 -11 18 0 25 -29 14 -51 -6 -10
-23 -25 -38 -33 -27 -14 -28 -17 -24 -73 5 -66 -10 -90 -49 -78 -20 7 -21 12
-16 71 4 61 4 64 -18 64 -12 0 -30 9 -41 21 -15 17 -16 23 -5 40 9 15 9 24 1
34 -8 10 -8 19 0 35 26 48 142 68 180 30z m-1730 -5 c0 -8 7 -15 16 -15 8 0
13 -4 10 -9 -8 -13 -66 10 -66 26 0 7 9 13 20 13 11 0 20 -7 20 -15z m1438
-14 c20 -12 11 -44 -16 -56 -17 -8 -22 -18 -22 -49 0 -27 -7 -47 -22 -63 l-22
-23 35 6 c19 3 43 7 53 9 51 10 77 -46 31 -67 -21 -9 -25 -18 -25 -54 0 -48
-19 -74 -54 -74 -33 0 -46 19 -46 67 0 39 -2 43 -24 43 -35 0 -43 30 -14 55
22 19 22 21 6 38 -10 9 -18 32 -18 50 0 27 -5 35 -31 44 -26 10 -34 9 -47 -4
-21 -21 -26 -53 -8 -53 20 0 30 -38 16 -55 -7 -8 -20 -15 -29 -15 -9 0 -3 -8
16 -20 49 -29 83 -113 62 -152 -11 -21 -30 -23 -76 -6 -29 11 -35 10 -56 -10
-27 -25 -65 -29 -73 -7 -5 12 -9 11 -24 -7 -12 -16 -33 -23 -73 -28 -90 -10
-97 -4 -97 84 0 72 1 76 28 90 20 11 22 15 9 16 -29 0 -30 25 -2 65 14 21 28
55 31 77 9 53 22 48 26 -9 3 -40 6 -48 22 -46 11 1 30 -3 43 -8 22 -8 23 -7
23 50 0 77 10 84 115 87 47 1 90 6 97 10 30 19 145 29 166 15z m-2393 -30 c-3
-9 -15 -43 -28 -76 l-24 -60 -61 2 c-34 1 -62 -3 -62 -8 0 -7 74 -15 103 -10
18 3 18 -32 -1 -71 -30 -66 -33 -79 -21 -95 11 -12 7 -139 -5 -150 -6 -6 -216
-4 -226 2 -6 3 -10 31 -10 61 0 32 -4 54 -11 54 -6 0 -10 -19 -9 -47 1 -27 1
-52 1 -58 -1 -6 -32 -9 -76 -8 -42 1 -85 -2 -98 -7 -27 -11 -43 -10 217 -15
103 -2 195 -6 202 -9 8 -3 13 -16 13 -28 -1 -17 -2 -18 -6 -5 -2 9 -8 17 -13
17 -14 0 -20 -29 -14 -74 6 -43 6 -43 -27 -49 -19 -3 -65 -3 -102 2 -38 4 -96
4 -130 0 -58 -7 -130 1 -145 16 -4 4 2 13 13 21 17 13 18 16 5 24 -22 14 -35
6 -33 -22 2 -36 -24 -31 -31 6 -4 19 -2 33 6 39 10 6 9 7 -2 4 -16 -4 -23 -84
-9 -93 15 -9 233 -31 331 -34 12 0 15 -5 11 -16 -3 -8 -6 -39 -7 -67 -1 -47
-3 -52 -23 -51 -13 0 -60 1 -106 2 l-83 2 -11 38 -10 37 -2 -36 c-1 -32 -4
-37 -32 -43 -30 -6 -139 0 -186 10 -18 3 -23 12 -24 37 l-1 32 -7 -30 c-8 -37
-41 -48 -42 -13 -1 23 -1 23 -8 -2 -7 -24 -10 -25 -86 -25 l-79 0 -4 66 -4 66
72 2 c40 1 78 -4 86 -9 8 -7 19 -8 31 -2 10 5 42 9 72 10 61 2 84 12 55 23
-28 11 -414 11 -414 0 0 -5 18 -12 39 -16 l40 -7 -3 -64 c-2 -35 -6 -67 -9
-70 -8 -8 -203 -7 -217 1 -5 3 -11 21 -11 38 l-2 32 -6 -35 c-6 -33 -9 -35
-50 -41 -62 -8 -94 -1 -85 20 3 9 14 41 24 71 l18 55 88 1 c127 2 134 3 134
15 0 6 -38 9 -107 8 l-108 -2 -2 64 c-2 35 -8 106 -14 158 -7 60 -7 97 -1 103
6 6 32 -1 73 -20 55 -26 67 -37 84 -74 11 -23 20 -47 20 -53 0 -13 85 -57 154
-80 69 -22 151 -16 223 18 29 13 80 28 112 32 85 10 118 27 39 20 -51 -5 -63
-3 -63 8 0 8 7 20 15 27 8 7 15 19 15 26 0 18 -1 19 65 -16 31 -16 64 -30 72
-30 28 0 83 65 83 99 l0 31 94 0 c52 0 97 4 100 9 9 14 -13 18 -116 19 -73 0
-103 5 -122 17 -34 23 -23 39 14 20 65 -34 130 -1 130 65 0 33 14 40 86 40 30
0 54 4 54 9 0 5 -17 7 -37 4 -21 -2 -50 0 -65 6 -32 12 -38 41 -9 41 10 0 24
6 30 14 7 8 24 17 38 21 14 3 61 23 103 44 56 27 86 37 109 33 24 -3 30 -8 26
-21z m915 20 c0 -17 -18 -21 -24 -6 -3 9 0 15 9 15 8 0 15 -4 15 -9z m30 -10
c0 -5 3 -18 7 -28 6 -16 5 -16 -10 -4 -19 15 -23 41 -7 41 6 0 10 -4 10 -9z
m1532 -18 c0 -10 0 -28 -1 -40 -1 -13 3 -31 8 -42 17 -30 -15 -51 -67 -44 -40
5 -42 7 -42 40 0 57 97 139 102 86z m-1552 -28 c0 -8 -2 -15 -4 -15 -2 0 -6 7
-10 15 -3 8 -1 15 4 15 6 0 10 -7 10 -15z m2260 -27 c0 -4 9 -8 19 -8 10 0 21
-7 25 -15 7 -19 4 -19 -44 6 -45 24 -49 28 -20 26 11 -1 20 -5 20 -9z m-947
-50 c5 -38 3 -56 -7 -67 -20 -19 -39 -5 -26 19 14 26 12 49 -5 67 -18 17 -11
33 14 33 14 0 20 -11 24 -52z m-2576 -8 c2 -11 0 -20 -5 -20 -9 1 -42 26 -42
33 0 7 33 15 39 10 3 -2 6 -12 8 -23z m3051 -52 c-3 -60 -4 -63 -28 -63 -23 0
-25 4 -28 49 -4 63 2 76 33 76 25 0 26 -1 23 -62z m-182 44 c6 -4 14 -28 17
-53 7 -53 -8 -83 -39 -77 -15 3 -20 13 -22 56 -4 65 14 94 44 74z m-4121 -51
c-22 -21 -155 -89 -160 -81 -3 5 4 11 15 15 11 3 45 22 77 41 55 33 88 45 68
25z m-921 -28 c-9 -36 -12 -39 -25 -26 -14 14 -2 53 17 53 11 0 13 -7 8 -27z
m3610 0 c4 -9 2 -21 -4 -27 -7 -7 -10 -7 -10 1 0 6 -3 18 -6 27 -3 9 -2 16 4
16 5 0 13 -8 16 -17z m-2679 -13 c-4 -6 -30 -22 -58 -36 -57 -29 -46 -7 14 26
39 21 53 25 44 10z m4284 -39 c19 -12 6 -41 -18 -41 -26 0 -36 17 -21 35 14
17 20 18 39 6z m-4609 -11 c0 -5 -7 -10 -16 -10 -8 0 -12 5 -9 10 3 6 10 10
16 10 5 0 9 -4 9 -10z m4527 -1 c17 -17 4 -39 -23 -39 -26 0 -32 18 -12 38 15
15 21 15 35 1z m-88 -8 c19 -12 6 -41 -18 -41 -26 0 -36 17 -21 35 14 17 20
18 39 6z m-4319 -16 c6 -8 9 -18 6 -23 -8 -13 -76 10 -76 25 0 18 55 16 70 -2z
m2649 -19 c-11 -9 -119 -15 -119 -6 0 6 27 10 62 10 34 0 59 -2 57 -4z m-2874
-16 c4 -6 11 -8 16 -4 5 3 32 -2 58 -12 43 -15 48 -20 47 -45 -2 -42 -11 -44
-60 -15 -25 14 -49 26 -53 25 -17 -4 -93 14 -93 22 0 12 42 39 62 39 9 0 20
-5 23 -10z m-414 -144 c5 3 26 -11 47 -30 l37 -36 -56 0 c-94 0 -239 13 -239
21 0 17 192 62 198 47 2 -5 8 -6 13 -2z m369 10 c0 -3 -4 -8 -10 -11 -5 -3
-10 -1 -10 4 0 6 5 11 10 11 6 0 10 -2 10 -4z m54 -28 l19 -33 -26 24 c-27 24
-34 41 -19 41 4 0 16 -15 26 -32z m3690 -103 c-4 -8 -8 -15 -10 -15 -2 0 -4 7
-4 15 0 8 4 15 10 15 5 0 7 -7 4 -15z m-1783 -90 c4 -17 9 -51 12 -77 4 -47 4
-48 -23 -48 -15 0 -48 3 -74 6 l-46 7 0 57 c0 65 9 76 60 83 56 7 63 4 71 -28z
m1635 9 c-3 -9 -6 -22 -6 -30 0 -8 -7 -14 -15 -14 -18 0 -19 14 -3 40 15 24
33 27 24 4z m-3622 -24 c14 -5 26 -16 26 -23 0 -15 -94 -109 -190 -192 -30
-26 -61 -54 -67 -63 -7 -8 -15 -13 -18 -10 -6 6 58 159 86 204 10 17 19 38 19
46 0 9 7 21 15 28 10 8 15 9 15 2 0 -14 51 -62 65 -62 23 0 33 22 25 51 -10
33 -10 32 24 19z m4199 -241 c226 -45 365 -57 477 -40 142 22 160 24 160 13 0
-5 11 -13 25 -16 14 -4 34 -15 45 -26 11 -11 20 -18 20 -15 0 3 9 1 20 -5 28
-15 25 -32 -4 -24 -18 4 -25 1 -29 -16 -5 -19 -8 -20 -27 -10 -15 8 -25 8 -34
1 -7 -6 -16 -7 -20 -3 -4 4 -14 -2 -22 -13 -12 -16 -18 -18 -34 -7 -16 10 -20
10 -20 -2 0 -7 -8 -16 -18 -18 -18 -5 -48 -81 -38 -97 3 -4 -6 -14 -19 -21
-19 -10 -23 -18 -18 -38 5 -21 3 -23 -14 -18 -12 4 -43 -2 -72 -13 -83 -33
-100 -34 -107 -4 -6 23 -10 25 -48 20 -33 -5 -47 -1 -73 19 -18 14 -33 22 -33
18 0 -4 -9 1 -19 10 -11 10 -28 16 -38 14 -12 -2 -28 10 -46 35 -20 27 -32 36
-40 29 -16 -13 -77 -3 -77 12 0 15 -38 38 -51 30 -6 -3 -27 7 -47 23 -23 19
-55 33 -83 37 -26 4 -55 13 -65 20 -17 13 -17 15 -1 30 20 20 23 72 5 79 -8 4
-7 6 3 6 9 1 19 8 23 16 9 25 103 18 319 -26z m-659 -5 c4 -9 5 -18 4 -19 -2
-2 -39 0 -83 5 -62 5 -70 8 -35 10 25 1 56 6 70 10 36 12 37 12 44 -6z m1482
-10 c-3 -9 -6 -22 -6 -30 0 -8 -4 -14 -10 -14 -5 0 -7 7 -4 15 4 8 1 15 -5 15
-6 0 -11 7 -11 15 0 9 9 15 21 15 15 0 19 -4 15 -16z m-3468 -10 l92 -7 0
-161 c0 -113 -4 -166 -12 -174 -9 -9 -83 -12 -270 -12 l-258 0 0 -185 0 -185
-172 2 -173 3 -1 140 c0 99 -5 154 -16 188 l-16 47 184 0 184 0 0 168 c0 93 3
172 7 175 8 9 332 9 451 1z m3432 -49 c0 -8 -4 -15 -9 -15 -13 0 -22 16 -14
24 11 11 23 6 23 -9z m-4783 -1 c-3 -3 -12 -4 -19 -1 -8 3 -5 6 6 6 11 1 17
-2 13 -5z m3599 -261 c-10 -10 -19 5 -10 18 6 11 8 11 12 0 2 -7 1 -15 -2 -18z
m-1888 -69 c2 -16 12 -69 23 -119 10 -49 19 -118 19 -152 l0 -64 -157 3 -158
3 -3 26 c-2 21 13 42 80 110 46 46 103 117 127 157 46 76 64 85 69 36z m-2209
-177 c11 -49 18 -63 32 -63 9 0 17 3 16 6 -1 3 3 7 8 10 6 3 14 -12 19 -32 5
-21 15 -38 23 -38 7 0 13 -4 13 -8 0 -14 -36 -43 -43 -35 -4 3 -7 -6 -7 -20 0
-15 -5 -27 -11 -27 -5 0 -8 -4 -4 -10 3 -5 -7 -9 -22 -9 -15 0 -40 -2 -54 -6
-22 -6 -28 -2 -39 24 -12 31 -12 41 11 118 11 37 11 44 -4 61 -20 22 -22 42
-4 42 7 1 5 6 -5 14 -25 19 -22 31 10 42 37 14 46 4 61 -69z m284 73 c15 0 17
-12 17 -121 l0 -120 -32 3 c-26 2 -33 7 -31 23 1 11 -5 52 -13 90 -23 113 -18
141 21 131 11 -3 28 -6 38 -6z m4617 -20 c0 -5 -4 -10 -10 -10 -5 0 -10 5 -10
10 0 6 5 10 10 10 6 0 10 -4 10 -10z m-1764 -50 l21 0 -22 -77 c-22 -77 -23
-78 -55 -78 -31 0 -33 3 -51 60 -10 33 -19 71 -19 84 0 23 2 24 53 17 28 -3
61 -6 73 -6z m-3168 -280 c13 -37 -1 -49 -17 -14 -13 30 -14 44 -2 44 5 0 14
-13 19 -30z m-100 -65 c-2 -17 -8 -25 -20 -25 -21 0 -22 4 -8 31 15 27 30 24
28 -6z m4072 5 c0 -5 -2 -10 -4 -10 -3 0 -8 5 -11 10 -3 6 -1 10 4 10 6 0 11
-4 11 -10z m-3543 -25 c3 -9 3 -18 1 -21 -9 -9 -59 16 -53 26 10 16 45 12 52
-5z"/>
<path d="M3275 4170 c3 -5 8 -10 11 -10 2 0 4 5 4 10 0 6 -5 10 -11 10 -5 0
-7 -4 -4 -10z"/>
<path d="M2590 4030 c8 -5 20 -10 25 -10 6 0 3 5 -5 10 -8 5 -19 10 -25 10 -5
0 -3 -5 5 -10z"/>
<path d="M3550 4020 c0 -5 4 -10 9 -10 6 0 13 5 16 10 3 6 -1 10 -9 10 -9 0
-16 -4 -16 -10z"/>
<path d="M3320 3935 c-9 -10 -9 -15 -1 -15 6 0 11 4 11 9 0 5 8 12 18 14 14 4
14 5 1 6 -9 0 -22 -6 -29 -14z"/>
<path d="M2910 3860 c-8 -5 -10 -10 -5 -10 6 0 17 5 25 10 8 5 11 10 5 10 -5
0 -17 -5 -25 -10z"/>
<path d="M2815 3780 c3 -5 8 -10 11 -10 2 0 4 5 4 10 0 6 -5 10 -11 10 -5 0
-7 -4 -4 -10z"/>
<path d="M3381 3704 c0 -11 3 -14 6 -6 3 7 2 16 -1 19 -3 4 -6 -2 -5 -13z"/>
<path d="M2820 3508 c0 -31 115 -115 143 -105 7 3 0 10 -16 16 -15 6 -50 32
-77 57 -29 27 -50 41 -50 32z"/>
<path d="M2988 3393 c7 -3 16 -2 19 1 4 3 -2 6 -13 5 -11 0 -14 -3 -6 -6z"/>
<path d="M6210 3334 c0 -21 119 -80 142 -71 8 4 6 6 -5 6 -21 1 -95 37 -119
59 -10 8 -18 11 -18 6z"/>
<path d="M5642 3270 c0 -14 2 -19 5 -12 2 6 2 18 0 25 -3 6 -5 1 -5 -13z"/>
<path d="M4191 3226 l-22 -24 22 -16 c29 -20 40 -20 64 -2 18 13 18 15 2 40
-22 32 -37 33 -66 2z"/>
<path d="M3562 2670 c0 -14 2 -19 5 -12 2 6 2 18 0 25 -3 6 -5 1 -5 -13z"/>
<path d="M3496 2663 c-3 -4 -29 -6 -57 -4 -54 2 -89 -5 -89 -19 0 -10 178 -12
184 -2 6 10 -30 33 -38 25z"/>
<path d="M5980 3110 c-8 -5 -12 -11 -9 -14 3 -3 14 1 25 9 21 16 8 20 -16 5z"/>
<path d="M6005 3058 c-29 -16 -35 -29 -24 -50 16 -30 55 -44 75 -27 12 10 46
14 115 14 100 0 127 9 116 38 -3 8 -26 19 -51 26 -58 14 -205 14 -231 -1z"/>
<path d="M6481 2764 c0 -11 3 -14 6 -6 3 7 2 16 -1 19 -3 4 -6 -2 -5 -13z"/>
<path d="M2470 2895 c0 -8 5 -15 10 -15 6 0 10 7 10 15 0 8 -4 15 -10 15 -5 0
-10 -7 -10 -15z"/>
<path d="M2950 2885 c0 -14 2 -25 4 -25 2 0 6 11 8 25 3 14 1 25 -3 25 -5 0
-9 -11 -9 -25z"/>
<path d="M2952 2840 c3 -12 -16 -15 -106 -18 -80 -2 -112 1 -118 10 -5 9 -8 6
-8 -9 0 -22 2 -22 153 -22 122 1 147 3 127 12 -14 6 -31 18 -38 27 -11 13 -12
13 -10 0z"/>
<path d="M2490 2810 c0 -5 37 -9 85 -8 47 0 85 5 85 9 0 5 -38 9 -85 9 -47 0
-85 -4 -85 -10z"/>
<path d="M2603 2764 c-7 -19 4 -115 15 -126 9 -9 441 -12 450 -4 12 13 -10 15
-183 19 -124 3 -180 7 -183 15 -2 7 -10 12 -17 12 -7 0 -19 14 -27 30 -7 17
-18 28 -26 25 -9 -3 -10 3 -6 20 7 28 -13 36 -23 9z"/>
<path d="M3080 2738 c0 -17 3 -28 8 -24 10 10 10 56 0 56 -4 0 -8 -14 -8 -32z"/>
<path d="M2352 2560 c0 -14 2 -19 5 -12 2 6 2 18 0 25 -3 6 -5 1 -5 -13z"/>
<path d="M1998 2503 c7 -3 16 -2 19 1 4 3 -2 6 -13 5 -11 0 -14 -3 -6 -6z"/>
<path d="M5540 1210 c0 -5 5 -10 10 -10 6 0 10 5 10 10 0 6 -4 10 -10 10 -5 0
-10 -4 -10 -10z"/>
<path d="M2020 1901 c0 -9 30 -24 36 -18 2 1 -6 8 -16 15 -11 7 -20 8 -20 3z"/>
<path d="M5668 1739 c-23 -24 -22 -26 2 -32 25 -6 26 -30 3 -53 -26 -25 -25
-48 2 -61 22 -10 25 -9 25 7 0 30 21 72 54 108 l30 32 -40 0 c-22 0 -44 4 -49
9 -6 4 -17 0 -27 -10z"/>
<path d="M2381 1504 c0 -11 3 -14 6 -6 3 7 2 16 -1 19 -3 4 -6 -2 -5 -13z"/>
<path d="M2398 1463 c7 -3 16 -2 19 1 4 3 -2 6 -13 5 -11 0 -14 -3 -6 -6z"/>
<path d="M2445 1450 c3 -5 18 -10 33 -10 21 0 24 2 12 10 -20 13 -53 13 -45 0z"/>
<path d="M3123 1405 c0 -8 8 -16 18 -18 11 -3 16 0 12 8 -7 19 -30 26 -30 10z"/>
<path d="M1720 1560 c-9 -6 -10 -10 -3 -10 6 0 15 5 18 10 8 12 4 12 -15 0z"/>
<path d="M5477 953 c-13 -12 -7 -43 8 -43 9 0 15 9 15 25 0 24 -10 32 -23 18z"/>
<path d="M6241 841 c-12 -16 -21 -36 -21 -44 0 -9 -5 -19 -12 -23 -7 -5 -5
-11 7 -21 15 -10 16 -16 7 -25 -15 -15 -16 -38 -2 -38 6 0 10 7 10 15 0 8 4
15 9 15 5 0 7 8 4 19 -3 11 2 21 12 25 13 5 14 10 6 19 -13 17 1 73 18 69 7
-1 10 2 6 8 -10 17 -23 12 -44 -19z"/>
<path d="M6636 537 c3 -10 9 -15 12 -12 3 3 0 11 -7 18 -10 9 -11 8 -5 -6z"/>
<path d="M5410 454 c0 -3 7 -12 15 -20 13 -14 15 -13 15 5 0 12 -6 21 -15 21
-8 0 -15 -3 -15 -6z"/>
<path d="M2934 15 c-18 -14 -18 -14 9 -15 15 0 27 4 27 9 0 18 -17 20 -36 6z"/>
<path d="M6350 10 c0 -5 5 -10 10 -10 6 0 10 5 10 10 0 6 -4 10 -10 10 -5 0
-10 -4 -10 -10z"/>
</g>
</svg>
